<svg width="22" height="22" viewBox="0 0 22 22" fill="none" xmlns="http://www.w3.org/2000/svg">
<path d="M4.80331 11.045V7.04409C4.8152 6.25765 4.98215 5.48129 5.29461 4.75948C5.60707 4.03767 6.05889 3.38461 6.62419 2.83771C7.18948 2.29081 7.85715 1.86082 8.58891 1.57239C9.32068 1.28396 10.1022 1.14275 10.8886 1.15684C11.6751 1.14275 12.4566 1.28396 13.1883 1.57239C13.9201 1.86082 14.5878 2.29081 15.153 2.83771C15.7183 3.38461 16.1702 4.03767 16.4826 4.75948C16.7951 5.48129 16.962 6.25765 16.9739 7.04409V11.045M13.9313 19.0316C14.7382 19.0316 15.5121 18.711 16.0827 18.1404C16.6534 17.5698 16.9739 16.796 16.9739 15.9891V12.5662M13.9313 19.0316C13.9313 19.5359 13.7309 20.0196 13.3743 20.3762C13.0177 20.7328 12.534 20.9331 12.0296 20.9331H9.74762C9.24327 20.9331 8.75958 20.7328 8.40295 20.3762C8.04632 20.0196 7.84597 19.5359 7.84597 19.0316C7.84597 18.5272 8.04632 18.0436 8.40295 17.6869C8.75958 17.3303 9.24327 17.13 9.74762 17.13H12.0296C12.534 17.13 13.0177 17.3303 13.3743 17.6869C13.7309 18.0436 13.9313 18.5272 13.9313 19.0316ZM2.52133 8.7631H4.04265C4.24439 8.7631 4.43787 8.84324 4.58052 8.98589C4.72317 9.12853 4.80331 9.322 4.80331 9.52373V14.0875C4.80331 14.2892 4.72317 14.4827 4.58052 14.6253C4.43787 14.768 4.24439 14.8481 4.04265 14.8481H2.52133C2.11785 14.8481 1.73089 14.6878 1.44559 14.4025C1.16028 14.1173 1 13.7303 1 13.3269V10.2844C1 9.8809 1.16028 9.49396 1.44559 9.20867C1.73089 8.92338 2.11785 8.7631 2.52133 8.7631ZM19.2559 14.8481H17.7346C17.5328 14.8481 17.3394 14.768 17.1967 14.6253C17.0541 14.4827 16.9739 14.2892 16.9739 14.0875V9.52373C16.9739 9.322 17.0541 9.12853 17.1967 8.98589C17.3394 8.84324 17.5328 8.7631 17.7346 8.7631H19.2559C19.6594 8.7631 20.0463 8.92338 20.3317 9.20867C20.617 9.49396 20.7772 9.8809 20.7772 10.2844V13.3269C20.7772 13.7303 20.617 14.1173 20.3317 14.4025C20.0463 14.6878 19.6594 14.8481 19.2559 14.8481Z" stroke="white" stroke-opacity="0.5" stroke-width="1.3" stroke-linecap="round" stroke-linejoin="round"/>
</svg>
