<svg width="18" height="18" viewBox="0 0 18 18" fill="none" xmlns="http://www.w3.org/2000/svg">
<mask id="path-1-inside-1_1008_8617" fill="white">
<path fill-rule="evenodd" clip-rule="evenodd" d="M9 0C13.9626 0 18 4.0374 18 9C18 13.9626 13.9626 18 9 18C4.0374 18 0 13.9626 0 9C0 4.0374 4.0374 0 9 0ZM9 1.35C4.7817 1.35 1.35 4.7817 1.35 9C1.35 13.2183 4.7817 16.65 9 16.65C13.2183 16.65 16.65 13.2183 16.65 9C16.65 4.7817 13.2183 1.35 9 1.35ZM8.69508 4.58586C9.06858 4.58586 9.37008 4.88826 9.37008 5.26086V9.24066L12.4346 11.0677C12.7541 11.2594 12.8594 11.6734 12.6686 11.9938C12.5417 12.2053 12.3176 12.3232 12.0881 12.3232C11.9702 12.3232 11.8514 12.2926 11.7425 12.2287L8.34948 10.2046C8.14608 10.0822 8.02008 9.86166 8.02008 9.62406V5.26086C8.02008 4.88826 8.32248 4.58586 8.69508 4.58586Z"/>
</mask>
<path d="M9.37008 9.24066H7.97008V10.0359L8.65316 10.4432L9.37008 9.24066ZM12.4346 11.0677L13.1549 9.86717L13.1515 9.86515L12.4346 11.0677ZM12.6686 11.9938L13.8691 12.7141L13.8714 12.7101L12.6686 11.9938ZM11.7425 12.2287L11.0252 13.431L11.034 13.4361L11.7425 12.2287ZM8.34948 10.2046L7.62762 11.4041L7.63224 11.4069L8.34948 10.2046ZM9 1.4C13.1894 1.4 16.6 4.8106 16.6 9H19.4C19.4 3.2642 14.7358 -1.4 9 -1.4V1.4ZM16.6 9C16.6 13.1894 13.1894 16.6 9 16.6V19.4C14.7358 19.4 19.4 14.7358 19.4 9H16.6ZM9 16.6C4.8106 16.6 1.4 13.1894 1.4 9H-1.4C-1.4 14.7358 3.2642 19.4 9 19.4V16.6ZM1.4 9C1.4 4.8106 4.8106 1.4 9 1.4V-1.4C3.2642 -1.4 -1.4 3.2642 -1.4 9H1.4ZM9 -0.05C4.0085 -0.05 -0.05 4.0085 -0.05 9H2.75C2.75 5.5549 5.5549 2.75 9 2.75V-0.05ZM-0.05 9C-0.05 13.9915 4.0085 18.05 9 18.05V15.25C5.5549 15.25 2.75 12.4451 2.75 9H-0.05ZM9 18.05C13.9915 18.05 18.05 13.9915 18.05 9H15.25C15.25 12.4451 12.4451 15.25 9 15.25V18.05ZM18.05 9C18.05 4.0085 13.9915 -0.05 9 -0.05V2.75C12.4451 2.75 15.25 5.5549 15.25 9H18.05ZM8.69508 5.98586C8.29416 5.98586 7.97008 5.66024 7.97008 5.26086H10.7701C10.7701 4.11628 9.84299 3.18586 8.69508 3.18586V5.98586ZM7.97008 5.26086V9.24066H10.7701V5.26086H7.97008ZM8.65316 10.4432L11.7177 12.2702L13.1515 9.86515L10.087 8.03815L8.65316 10.4432ZM11.7143 12.2682C11.3754 12.0648 11.26 11.6229 11.4657 11.2774L13.8714 12.7101C14.4587 11.7239 14.1328 10.4539 13.1549 9.86717L11.7143 12.2682ZM11.4681 11.2735C11.6028 11.049 11.8427 10.9232 12.0881 10.9232V13.7232C12.7925 13.7232 13.4806 13.3615 13.8691 12.7141L11.4681 11.2735ZM12.0881 10.9232C12.215 10.9232 12.3414 10.9569 12.451 11.0212L11.034 13.4361C11.3613 13.6282 11.7253 13.7232 12.0881 13.7232V10.9232ZM12.4597 11.0263L9.06672 9.00224L7.63224 11.4069L11.0252 13.431L12.4597 11.0263ZM9.07133 9.00501C9.28427 9.13314 9.42008 9.36535 9.42008 9.62406H6.62008C6.62008 10.358 7.00789 11.0312 7.62762 11.4041L9.07133 9.00501ZM9.42008 9.62406V5.26086H6.62008V9.62406H9.42008ZM9.42008 5.26086C9.42008 5.66146 9.09568 5.98586 8.69508 5.98586V3.18586C7.54928 3.18586 6.62008 4.11506 6.62008 5.26086H9.42008Z" fill="white" fill-opacity="0.5" mask="url(#path-1-inside-1_1008_8617)"/>
</svg>
