<svg width="16" height="20" viewBox="0 0 16 20" fill="none" xmlns="http://www.w3.org/2000/svg">
<path d="M10.4796 2.51594L11.2796 1.0726C11.2898 1.05411 11.2963 1.03378 11.2987 1.01278C11.3011 0.991777 11.2993 0.970512 11.2934 0.950199C11.2876 0.929887 11.2778 0.910923 11.2646 0.894393C11.2515 0.877862 11.2352 0.864087 11.2167 0.853855C11.1982 0.843623 11.1779 0.837134 11.1569 0.834758C11.1359 0.832382 11.1146 0.834166 11.0943 0.840009C11.074 0.845851 11.055 0.855637 11.0385 0.868808C11.0219 0.881979 11.0082 0.898277 10.9979 0.916772L10.1896 2.3751C9.49956 2.07256 8.75429 1.91636 8.00085 1.91636C7.2474 1.91636 6.50213 2.07256 5.8121 2.3751L5.00376 0.916772C4.9831 0.879199 4.94835 0.851375 4.90717 0.839419C4.86599 0.827464 4.82175 0.832357 4.78418 0.853022C4.74661 0.873686 4.71878 0.90843 4.70683 0.94961C4.69487 0.99079 4.69977 1.03503 4.72043 1.0726L5.52043 2.51594C4.75925 2.89135 4.11615 3.46911 3.66164 4.18586C3.20712 4.90262 2.95875 5.73069 2.94376 6.57927H13.0579C13.0428 5.73051 12.7942 4.90232 12.3393 4.18555C11.8845 3.46878 11.2411 2.89112 10.4796 2.51594ZM5.6671 4.72844C5.5835 4.72844 5.50178 4.70364 5.43228 4.65718C5.36278 4.61071 5.30863 4.54468 5.27668 4.46743C5.24472 4.39018 5.23641 4.30519 5.25278 4.22321C5.26915 4.14123 5.30947 4.06595 5.36864 4.00689C5.42781 3.94784 5.50317 3.90766 5.58518 3.89145C5.66719 3.87525 5.75217 3.88373 5.82936 3.91584C5.90655 3.94794 5.97247 4.00223 6.0188 4.07182C6.06512 4.14141 6.08976 4.22317 6.0896 4.30677C6.08938 4.41868 6.04477 4.52593 5.96556 4.60499C5.88634 4.68404 5.77901 4.72844 5.6671 4.72844ZM10.3354 4.72844C10.2518 4.72844 10.1701 4.70364 10.1006 4.65718C10.0311 4.61071 9.97696 4.54468 9.94501 4.46743C9.91306 4.39018 9.90474 4.30519 9.92111 4.22321C9.93748 4.14123 9.9778 4.06595 10.037 4.00689C10.0961 3.94784 10.1715 3.90766 10.2535 3.89145C10.3355 3.87525 10.4205 3.88373 10.4977 3.91584C10.5749 3.94794 10.6408 4.00223 10.6871 4.07182C10.7335 4.14141 10.7581 4.22317 10.7579 4.30677C10.7577 4.41868 10.7131 4.52593 10.6339 4.60499C10.5547 4.68404 10.4473 4.72844 10.3354 4.72844ZM2.9421 14.3093C2.94188 14.4702 2.97342 14.6295 3.03491 14.7782C3.09641 14.9269 3.18664 15.0619 3.30045 15.1757C3.41426 15.2894 3.54939 15.3795 3.69811 15.4409C3.84683 15.5023 4.00621 15.5338 4.1671 15.5334H4.97793V18.0334C4.97793 18.3341 5.09738 18.6225 5.31 18.8351C5.52262 19.0477 5.81099 19.1672 6.11168 19.1672C6.41237 19.1672 6.70074 19.0477 6.91336 18.8351C7.12598 18.6225 7.24543 18.3341 7.24543 18.0334V15.5334H8.7571V18.0334C8.7571 18.334 8.8765 18.6223 9.08904 18.8348C9.30158 19.0474 9.58985 19.1668 9.89043 19.1668C10.191 19.1668 10.4793 19.0474 10.6918 18.8348C10.9044 18.6223 11.0238 18.334 11.0238 18.0334V15.5334H11.8354C11.9961 15.5335 12.1552 15.502 12.3037 15.4405C12.4522 15.3791 12.5871 15.289 12.7007 15.1754C12.8143 15.0618 12.9044 14.9269 12.9659 14.7784C13.0273 14.6299 13.0589 14.4708 13.0588 14.3101V6.97927H2.9421V14.3093ZM1.38626 6.78427C1.08568 6.78471 0.797538 6.90437 0.585068 7.117C0.372599 7.32962 0.25315 7.61785 0.25293 7.91844V12.6426C0.25293 12.7914 0.282244 12.9388 0.339199 13.0763C0.396155 13.2138 0.479636 13.3388 0.584875 13.444C0.690115 13.5492 0.815053 13.6327 0.952555 13.6897C1.09006 13.7466 1.23743 13.7759 1.38626 13.7759C1.53509 13.7759 1.68247 13.7466 1.81997 13.6897C1.95747 13.6327 2.08241 13.5492 2.18765 13.444C2.29289 13.3388 2.37637 13.2138 2.43333 13.0763C2.49028 12.9388 2.5196 12.7914 2.5196 12.6426V7.91844C2.51916 7.618 2.39961 7.32998 2.18716 7.11754C1.97472 6.90509 1.68671 6.78555 1.38626 6.78511V6.78427ZM14.6129 6.78427C14.3123 6.78471 14.0242 6.90437 13.8117 7.117C13.5993 7.32962 13.4798 7.61785 13.4796 7.91844V12.6426C13.4796 12.7914 13.5089 12.9388 13.5659 13.0763C13.6228 13.2138 13.7063 13.3388 13.8115 13.444C13.9168 13.5492 14.0417 13.6327 14.1792 13.6897C14.3167 13.7466 14.4641 13.7759 14.6129 13.7759C14.7618 13.7759 14.9091 13.7466 15.0466 13.6897C15.1841 13.6327 15.3091 13.5492 15.4143 13.444C15.5196 13.3388 15.603 13.2138 15.66 13.0763C15.7169 12.9388 15.7463 12.7914 15.7463 12.6426V7.91844C15.7458 7.618 15.6263 7.32998 15.4138 7.11754C15.2014 6.90509 14.9134 6.78555 14.6129 6.78511V6.78427Z" fill="#040505"/>
</svg>
