<svg width="17" height="16" viewBox="0 0 17 16" fill="none" xmlns="http://www.w3.org/2000/svg">
<path d="M6.89034 12.7523H1.0274M9.50536 3.73349H15.3683M5.3979 3.68323C5.3979 2.4776 4.41326 1.5 3.19895 1.5C1.98464 1.5 1 2.4776 1 3.68323C1 4.88887 1.98464 5.86647 3.19895 5.86647C4.41326 5.86647 5.3979 4.88887 5.3979 3.68323ZM15.8883 12.7168C15.8883 11.5111 14.9045 10.5335 13.6901 10.5335C12.4751 10.5335 11.4904 11.5111 11.4904 12.7168C11.4904 13.9224 12.4751 14.9 13.6901 14.9C14.9045 14.9 15.8883 13.9224 15.8883 12.7168Z" stroke="black" stroke-width="1.2" stroke-linecap="round" stroke-linejoin="round"/>
</svg>
