<svg width="19" height="20" viewBox="0 0 19 20" fill="none" xmlns="http://www.w3.org/2000/svg">
<path fill-rule="evenodd" clip-rule="evenodd" d="M8.78857 2.32937C5.22112 2.32937 2.32913 5.22136 2.32913 8.78884C2.32913 12.3562 5.22112 15.2482 8.78857 15.2482C12.356 15.2482 15.248 12.3562 15.248 8.78884C15.248 5.22136 12.356 2.32937 8.78857 2.32937ZM0.999756 8.78884C0.999756 4.48718 4.48693 1 8.78857 1C13.0902 1 16.5774 4.48718 16.5774 8.78884C16.5774 13.0905 13.0902 16.5776 8.78857 16.5776C4.48693 16.5776 0.999756 13.0905 0.999756 8.78884Z" fill="black" fill-opacity="0.8"/>
<path fill-rule="evenodd" clip-rule="evenodd" d="M13.6518 13.095L18.6285 18.0588L17.6897 19L12.713 14.0362L13.6518 13.095Z" fill="black" fill-opacity="0.8"/>
<path d="M8.78857 16.6276C10.5986 16.6276 12.2654 16.0142 13.5922 14.9838L17.6544 19.0354L17.6898 19.0707L17.7251 19.0353L18.6639 18.0941L18.6992 18.0587L18.6638 18.0234L14.6376 14.0077C15.8752 12.6217 16.6274 10.7931 16.6274 8.78884C16.6274 4.45957 13.1179 0.95 8.78857 0.95C4.45931 0.95 0.949756 4.45956 0.949756 8.78884C0.949756 13.1181 4.45931 16.6276 8.78857 16.6276ZM2.37913 8.78884C2.37913 5.24898 5.24873 2.37937 8.78857 2.37937C12.3284 2.37937 15.198 5.24898 15.198 8.78884C15.198 12.3286 12.3284 15.1982 8.78857 15.1982C5.24873 15.1982 2.37913 12.3286 2.37913 8.78884Z" stroke="black" stroke-opacity="0.8" stroke-width="0.1"/>
</svg>
