<svg width="42" height="42" viewBox="0 0 42 42" fill="none" xmlns="http://www.w3.org/2000/svg">
<path d="M40.164 21.0777C40.1701 24.8661 39.0433 28.5697 36.9286 31.7128C35.1845 34.3144 32.8262 36.4461 30.0623 37.9194C27.2984 39.3927 24.214 40.1622 21.0819 40.1599C17.9498 40.1622 14.8654 39.3927 12.1015 37.9194C9.33759 36.4461 6.97931 34.3144 5.23524 31.7128C3.57452 29.2373 2.51689 26.4071 2.14713 23.4491C1.77736 20.4911 2.10576 17.4876 3.10598 14.6794C4.10621 11.8713 5.75045 9.33646 7.90688 7.27826C10.0633 5.22007 12.672 3.69573 15.5237 2.82743C18.3754 1.95913 21.391 1.77103 24.3285 2.27821C27.266 2.7854 30.0439 3.97375 32.4394 5.74801C34.8349 7.52227 36.7814 9.83309 38.1228 12.4952C39.4643 15.1573 40.1633 18.0967 40.164 21.0777Z" stroke="black" stroke-width="2.44444"/>
<path d="M24.262 14.7171C24.262 15.5606 23.9269 16.3695 23.3305 16.9659C22.734 17.5624 21.9251 17.8974 21.0816 17.8974V20.0177C21.7777 20.0177 22.467 19.8806 23.1101 19.6142C23.7532 19.3478 24.3375 18.9574 24.8297 18.4652C25.3219 17.973 25.7124 17.3886 25.9787 16.7455C26.2451 16.1024 26.3822 15.4132 26.3822 14.7171H24.262ZM21.0816 17.8974C20.2381 17.8974 19.4292 17.5624 18.8328 16.9659C18.2363 16.3695 17.9013 15.5606 17.9013 14.7171H15.781C15.781 15.4132 15.9181 16.1024 16.1845 16.7455C16.4509 17.3886 16.8413 17.973 17.3335 18.4652C18.3276 19.4592 19.6758 20.0177 21.0816 20.0177V17.8974ZM17.9013 14.7171C17.9013 13.8736 18.2363 13.0647 18.8328 12.4682C19.4292 11.8718 20.2381 11.5367 21.0816 11.5367V9.41649C19.6758 9.41649 18.3276 9.97494 17.3335 10.969C16.3395 11.9631 15.781 13.3113 15.781 14.7171H17.9013ZM21.0816 11.5367C21.9251 11.5367 22.734 11.8718 23.3305 12.4682C23.9269 13.0647 24.262 13.8736 24.262 14.7171H26.3822C26.3822 13.3113 25.8238 11.9631 24.8297 10.969C23.8357 9.97494 22.4874 9.41649 21.0816 9.41649V11.5367ZM6.59192 33.4939L5.57421 33.1928L5.41095 33.7462L5.78623 34.1851L6.59192 33.4939ZM35.5713 33.4939L36.377 34.1851L36.7523 33.7462L36.5869 33.1928L35.5713 33.4939ZM14.7209 28.4986H27.4423V26.3784H14.7209V28.4986ZM14.7209 26.3784C12.6661 26.3781 10.6661 27.0412 9.01844 28.269C7.37079 29.4968 6.16143 31.2237 5.57421 33.1928L7.60751 33.7971C8.06458 32.2657 9.00381 30.9228 10.2855 29.9681C11.5672 29.0135 13.1228 28.4981 14.7209 28.4986V26.3784ZM21.0816 39.0998C18.4807 39.1026 15.9101 38.541 13.5472 37.4538C11.1844 36.3667 9.0855 34.7798 7.39549 32.8027L5.78623 34.1851C7.67547 36.3939 10.0213 38.1666 12.6619 39.3812C15.3025 40.5957 18.1751 41.2231 21.0816 41.2201V39.0998ZM27.4423 28.4986C29.0407 28.4982 30.5966 29.0139 31.8783 29.969C33.16 30.9241 34.099 32.2674 34.5557 33.7992L36.5869 33.1928C35.9997 31.2237 34.7925 29.4968 33.1448 28.269C31.4972 27.0412 29.4971 26.3781 27.4423 26.3784V28.4986ZM34.7678 32.8027C33.0777 34.7798 30.9789 36.3667 28.616 37.4538C26.2532 38.541 23.6826 39.1026 21.0816 39.0998V41.2201C23.9881 41.2231 26.8608 40.5957 29.5014 39.3812C32.142 38.1666 34.4878 36.3939 36.377 34.1851L34.7678 32.8027Z" fill="black"/>
</svg>
