<svg width="26" height="21" viewBox="0 0 26 21" fill="none" xmlns="http://www.w3.org/2000/svg">
<path d="M4.89976 4.12H24.3998L21.9256 12.778C21.7392 13.4297 21.3456 14.0031 20.8043 14.4112C20.2631 14.8193 19.6036 15.04 18.9257 15.04H8.47372C7.70536 15.0404 6.96386 14.7573 6.3913 14.2449C5.81875 13.7325 5.4554 13.0269 5.37088 12.2632L4.11976 1H0.999756" stroke="white" stroke-width="1.5" stroke-linecap="round" stroke-linejoin="round"/>
<path d="M8.82996 18.9398C8.82996 19.3871 8.46731 19.7498 8.01996 19.7498C7.57261 19.7498 7.20996 19.3871 7.20996 18.9398C7.20996 18.4924 7.57261 18.1298 8.01996 18.1298C8.46731 18.1298 8.82996 18.4924 8.82996 18.9398Z" fill="white" stroke="white" stroke-width="1.5"/>
<path d="M21.3101 18.9398C21.3101 19.3872 20.9474 19.7498 20.5001 19.7498C20.0527 19.7498 19.6901 19.3872 19.6901 18.9398C19.6901 18.4925 20.0527 18.1298 20.5001 18.1298C20.9474 18.1298 21.3101 18.4925 21.3101 18.9398Z" fill="white" stroke="white" stroke-width="1.5"/>
</svg>
