<svg width="33" height="33" viewBox="0 0 33 33" fill="none" xmlns="http://www.w3.org/2000/svg">
<path fill-rule="evenodd" clip-rule="evenodd" d="M24.777 10.304C25.0788 10.2544 25.3872 10.3515 25.607 10.5651C28.1625 13.05 29.5699 16.3758 29.5699 19.9297C29.5699 27.1366 23.707 32.9999 16.5004 32.9999C10.5392 32.9999 5.33883 28.964 3.85415 23.1853C3.57281 22.089 3.43018 20.9937 3.43018 19.9297C3.43018 17.8411 3.91809 15.8333 4.88037 13.9623C5.82738 12.1229 7.21989 10.5122 8.90753 9.30391C8.91733 9.29689 8.92732 9.29006 8.93737 9.28335C8.99956 9.24235 9.06597 9.19376 9.1363 9.14229L9.14356 9.13698C9.15067 9.13177 9.15779 9.12657 9.16491 9.12136C9.19306 9.10075 9.22124 9.08012 9.24958 9.0597C11.933 7.13951 13.6183 4.16281 13.876 0.890911C13.9014 0.568001 14.0868 0.279315 14.3699 0.121856C14.6531 -0.0355384 14.996 -0.0407591 15.2838 0.107934C18.5892 1.81639 21.0159 4.86122 21.9413 8.46164C22.2228 9.55779 22.3654 10.653 22.3654 11.7174C22.3654 12.272 22.3293 12.8252 22.2574 13.3752C22.9782 12.6139 23.5909 11.7527 24.0733 10.8157C24.2135 10.5433 24.4746 10.3535 24.777 10.304ZM16.0001 24C18.2092 24 20.0001 22.2091 20.0001 20C20.0001 17.7909 18.2092 16 16.0001 16C13.7909 16 12.0001 17.7909 12.0001 20C12.0001 22.2091 13.7909 24 16.0001 24Z" fill="#6359E9"/>
</svg>
