<svg width="21" height="25" viewBox="0 0 21 25" fill="none" xmlns="http://www.w3.org/2000/svg">
<path d="M7.36875 11.7036L9.71625 13.9874L14.9981 8.84884M20.28 12.2746C20.28 17.8796 13.9958 21.9561 11.7093 23.2539C11.4494 23.4014 11.3195 23.4751 11.1361 23.5134C10.9938 23.5431 10.7862 23.5431 10.6439 23.5134C10.4605 23.4751 10.3306 23.4014 10.0707 23.2539C7.78421 21.9562 1.5 17.8796 1.5 12.2746V6.81349C1.5 5.90052 1.5 5.44404 1.65348 5.05164C1.78906 4.705 2.00939 4.3957 2.2954 4.15048C2.61917 3.87289 3.0585 3.7126 3.93718 3.39204L10.2306 1.09603C10.4746 1.007 10.5966 0.96249 10.7221 0.944844C10.8335 0.929193 10.9465 0.929193 11.0579 0.944844C11.1834 0.96249 11.3054 1.007 11.5494 1.09603L17.8428 3.39204C18.7215 3.7126 19.1608 3.87289 19.4846 4.15048C19.7706 4.3957 19.9909 4.705 20.1265 5.05164C20.28 5.44404 20.28 5.90052 20.28 6.81349V12.2746Z" stroke="white" stroke-opacity="0.5" stroke-width="1.3" stroke-linecap="round" stroke-linejoin="round"/>
</svg>
