<svg width="20" height="20" viewBox="0 0 20 20" fill="none" xmlns="http://www.w3.org/2000/svg">
<path d="M11.6828 19.1559C11.6828 19.5149 11.9738 19.8059 12.3328 19.8059C12.6918 19.8059 12.9828 19.5149 12.9828 19.1559H11.6828ZM6.63175 19.1559C6.63175 19.5149 6.92277 19.8059 7.28175 19.8059C7.64074 19.8059 7.93175 19.5149 7.93175 19.1559H6.63175ZM2.35297 2.50269L1.72237 2.34504L1.72236 2.3451L2.35297 2.50269ZM2.90252 1.18639L2.50293 0.673719L2.50202 0.674434L2.90252 1.18639ZM16.712 1.18639L17.1134 0.675151L17.1116 0.67372L16.712 1.18639ZM17.2616 2.50269L17.8922 2.3451L17.8922 2.34504L17.2616 2.50269ZM18.4768 7.36582L17.8462 7.5234L17.8462 7.52346L18.4768 7.36582ZM18.6132 8.11236L17.9648 8.06721L17.9647 8.06783L18.6132 8.11236ZM17.9162 9.00437L17.7162 8.38589L17.7143 8.3865L17.9162 9.00437ZM16.1119 9.00134L16.2596 8.36832L16.2594 8.36828L16.1119 9.00134ZM14.7047 7.80929L15.3049 7.55974L15.3041 7.55769L14.7047 7.80929ZM14.4855 6.81626L15.1268 6.71001L15.1267 6.7094L14.4855 6.81626ZM14.435 6.57887L13.9085 6.96006L13.9117 6.96445L14.435 6.57887ZM14.3532 6.53709V5.88709V6.53709ZM14.2714 6.57887L14.7947 6.96446L14.7979 6.96005L14.2714 6.57887ZM14.2208 6.81626L14.8621 6.92248L14.8621 6.92241L14.2208 6.81626ZM14.139 7.31025L14.7788 7.42541L14.7803 7.41647L14.139 7.31025ZM14.1208 7.41127L14.7594 7.53265L14.7606 7.52642L14.1208 7.41127ZM12.1833 9.05387V9.70387H12.1909L12.1985 9.70369L12.1833 9.05387ZM11.9772 9.05387L11.9625 9.7037L11.9698 9.70387H11.9772V9.05387ZM10.0214 7.31025L10.6653 7.22137L10.6641 7.21279L10.6627 7.20424L10.0214 7.31025ZM9.9396 6.81525L10.5809 6.70924L10.5806 6.70767L9.9396 6.81525ZM9.88909 6.57887L9.36257 6.96006L9.3658 6.96445L9.88909 6.57887ZM9.80726 6.53709V5.88709V6.53709ZM9.72544 6.57887L10.2487 6.96446L10.2519 6.96005L9.72544 6.57887ZM9.67493 6.81626L10.3162 6.92249L10.3162 6.92241L9.67493 6.81626ZM9.5931 7.31025L10.2329 7.42541L10.2344 7.41648L9.5931 7.31025ZM9.57492 7.41127L10.2135 7.53265L10.2146 7.52642L9.57492 7.41127ZM7.63735 9.05387V9.70387H7.64496L7.65256 9.70369L7.63735 9.05387ZM7.43126 9.05387L7.41605 9.70369L7.42365 9.70387H7.43126V9.05387ZM5.49369 7.41127L4.85394 7.52643L4.85512 7.53265L5.49369 7.41127ZM5.47551 7.31025L4.83415 7.41628L4.83579 7.42541L5.47551 7.31025ZM5.39368 6.81525L6.03498 6.70924L6.03472 6.70767L5.39368 6.81525ZM5.34317 6.57887L4.81665 6.96006L4.81988 6.96445L5.34317 6.57887ZM5.26134 6.53709V5.88709V6.53709ZM5.17952 6.57887L5.70282 6.96446L5.70602 6.96005L5.17952 6.57887ZM5.12901 6.81626L4.48773 6.71012L4.48772 6.71021L5.12901 6.81626ZM4.90979 7.80929L4.31004 7.55869L4.30957 7.55983L4.90979 7.80929ZM3.50359 9.00134L3.65057 9.6345L3.65141 9.63431L3.50359 9.00134ZM1.69835 9.00437L1.90019 8.3865L1.89833 8.38589L1.69835 9.00437ZM1.00131 8.11236L0.352601 8.15341L0.352839 8.15688L1.00131 8.11236ZM1.13769 7.36582L1.76828 7.52346L1.7683 7.5234L1.13769 7.36582ZM12.9828 19.1559V14.1049H11.6828V19.1559H12.9828ZM12.9828 14.1049C12.9828 13.6646 12.8079 13.2423 12.4965 12.9309L11.5773 13.8502C11.6448 13.9177 11.6828 14.0094 11.6828 14.1049H12.9828ZM12.4965 12.9309C12.1852 12.6196 11.7629 12.4447 11.3226 12.4447V13.7447C11.4181 13.7447 11.5097 13.7826 11.5773 13.8502L12.4965 12.9309ZM11.3226 12.4447H8.29196V13.7447H11.3226V12.4447ZM8.29196 12.4447C7.85164 12.4447 7.42936 12.6196 7.11802 12.9309L8.03725 13.8502C8.10481 13.7826 8.19643 13.7447 8.29196 13.7447V12.4447ZM7.11802 12.9309C6.80667 13.2423 6.63175 13.6646 6.63175 14.1049H7.93175C7.93175 14.0094 7.9697 13.9177 8.03725 13.8502L7.11802 12.9309ZM6.63175 14.1049V19.1559H7.93175V14.1049H6.63175ZM2.08583 9.05387V15.1151H3.38583V9.05387H2.08583ZM2.08583 15.1151C2.08583 16.0493 2.08445 16.8152 2.16563 17.4187C2.24935 18.0409 2.4314 18.5868 2.86819 19.0236L3.78743 18.1043C3.63225 17.9491 3.51831 17.7232 3.45403 17.2453C3.38722 16.7487 3.38583 16.0861 3.38583 15.1151H2.08583ZM2.86819 19.0236C3.30499 19.4603 3.85081 19.6424 4.4731 19.7261C5.07656 19.8073 5.84242 19.8059 6.77665 19.8059V18.5059C5.80564 18.5059 5.14306 18.5045 4.64642 18.4377C4.1686 18.3734 3.94262 18.2595 3.78743 18.1043L2.86819 19.0236ZM6.77665 19.8059H12.8379V18.5059H6.77665V19.8059ZM12.8379 19.8059C13.7721 19.8059 14.538 19.8073 15.1414 19.7261C15.7637 19.6424 16.3095 19.4603 16.7463 19.0236L15.8271 18.1043C15.6719 18.2595 15.4459 18.3734 14.9681 18.4377C14.4715 18.5045 13.8089 18.5059 12.8379 18.5059V19.8059ZM16.7463 19.0236C17.1831 18.5868 17.3652 18.0409 17.4489 17.4187C17.5301 16.8152 17.5287 16.0493 17.5287 15.1151H16.2287C16.2287 16.0861 16.2273 16.7487 16.1605 17.2453C16.0962 17.7232 15.9823 17.9491 15.8271 18.1043L16.7463 19.0236ZM17.5287 15.1151V9.05387H16.2287V15.1151H17.5287ZM2.98356 2.66034C3.0793 2.27738 3.13826 2.04622 3.2014 1.88057C3.25828 1.73133 3.29367 1.70566 3.30302 1.69835L2.50202 0.674434C2.2376 0.881289 2.09014 1.14605 1.98665 1.41756C1.88942 1.67266 1.81049 1.99257 1.72237 2.34504L2.98356 2.66034ZM3.3021 1.69906C3.31171 1.69157 3.34549 1.66339 3.50428 1.6444C3.68053 1.62331 3.91912 1.62223 4.31377 1.62223V0.322229C3.95077 0.322229 3.62112 0.321148 3.34985 0.353602C3.06112 0.388145 2.7681 0.46705 2.50293 0.67372L3.3021 1.69906ZM4.31377 1.62223H15.3008V0.322229H4.31377V1.62223ZM15.3008 1.62223C15.6954 1.62223 15.934 1.62331 16.1102 1.6444C16.269 1.66339 16.3028 1.69157 16.3124 1.69906L17.1116 0.67372C16.8464 0.46705 16.5534 0.388146 16.2647 0.353602C15.9934 0.321148 15.6638 0.322229 15.3008 0.322229V1.62223ZM16.3106 1.69763C16.3202 1.70514 16.3558 1.73136 16.4129 1.88089C16.4761 2.04649 16.5354 2.27788 16.631 2.66034L17.8922 2.34504C17.8039 1.99207 17.7248 1.6724 17.6274 1.41724C17.5238 1.14602 17.3766 0.88181 17.1134 0.675154L16.3106 1.69763ZM16.631 2.66028L17.8462 7.5234L19.1074 7.20823L17.8922 2.3451L16.631 2.66028ZM17.8462 7.52346C17.8971 7.72668 17.9289 7.85432 17.9482 7.95211C17.9672 8.04787 17.9645 8.07138 17.9648 8.06721L19.2616 8.1575C19.273 7.99372 19.2512 7.83994 19.2236 7.70032C19.1965 7.56273 19.1546 7.39691 19.1074 7.20817L17.8462 7.52346ZM17.9647 8.06783C17.9598 8.13961 17.9335 8.20826 17.8892 8.26495L18.9136 9.0654C19.1177 8.80412 19.239 8.48769 19.2617 8.15688L17.9647 8.06783ZM17.8892 8.26495C17.8449 8.32164 17.7847 8.36376 17.7162 8.38589L18.1161 9.62284C18.4317 9.52083 18.7094 9.32667 18.9136 9.0654L17.8892 8.26495ZM17.7143 8.3865C17.7194 8.38485 17.6968 8.39341 17.596 8.39851C17.4942 8.40367 17.3587 8.40387 17.1454 8.40387V9.70387C17.3452 9.70387 17.5194 9.70406 17.6618 9.69685C17.8052 9.68958 17.9614 9.67338 18.118 9.62224L17.7143 8.3865ZM17.1454 8.40387C16.571 8.40387 16.3938 8.39961 16.2596 8.36832L15.9643 9.63435C16.2807 9.70812 16.6429 9.70387 17.1454 9.70387V8.40387ZM16.2594 8.36828C16.0476 8.31894 15.8505 8.21987 15.6845 8.07927L14.8443 9.07122C15.1677 9.34518 15.5517 9.53823 15.9645 9.63439L16.2594 8.36828ZM15.6845 8.07927C15.5186 7.93868 15.3884 7.76059 15.3049 7.55974L14.1045 8.05885C14.2673 8.45023 14.5208 8.79725 14.8443 9.07122L15.6845 8.07927ZM15.3041 7.55769C15.2509 7.43096 15.2183 7.26252 15.1268 6.71001L13.8443 6.92251C13.9245 7.40647 13.9788 7.7593 14.1054 8.0609L15.3041 7.55769ZM15.1267 6.7094C15.1154 6.64186 15.1042 6.57389 15.0936 6.52153C15.0884 6.49548 15.0803 6.45791 15.0685 6.41843C15.0622 6.39728 15.0334 6.29519 14.9583 6.19329L13.9117 6.96445C13.8906 6.93583 13.8754 6.91009 13.865 6.89069C13.8545 6.871 13.8467 6.85393 13.8413 6.84108C13.8308 6.81633 13.8249 6.79723 13.8224 6.78877C13.8196 6.7794 13.8182 6.77356 13.8181 6.7731C13.8179 6.77232 13.8183 6.77396 13.8193 6.77889C13.8214 6.78931 13.8245 6.80561 13.8289 6.83122C13.8333 6.85647 13.8382 6.88617 13.8444 6.92312L15.1267 6.7094ZM14.9615 6.19769C14.8919 6.10151 14.8004 6.02322 14.6947 5.96923L14.1035 7.12704C14.0262 7.08758 13.9594 7.03035 13.9085 6.96005L14.9615 6.19769ZM14.6947 5.96923C14.589 5.91524 14.4719 5.88709 14.3532 5.88709V7.18709C14.2664 7.18709 14.1808 7.1665 14.1035 7.12704L14.6947 5.96923ZM14.3532 5.88709C14.2344 5.88709 14.1174 5.91524 14.0117 5.96923L14.6028 7.12704C14.5255 7.1665 14.44 7.18709 14.3532 7.18709V5.88709ZM14.0117 5.96923C13.9059 6.02322 13.8145 6.10151 13.7449 6.19769L14.7979 6.96005C14.747 7.03035 14.6801 7.08758 14.6028 7.12704L14.0117 5.96923ZM13.7481 6.19329C13.6737 6.29421 13.6448 6.39498 13.6382 6.41714C13.6263 6.45682 13.6182 6.49452 13.6128 6.52075C13.6021 6.57352 13.5909 6.64161 13.5796 6.71012L14.8621 6.92241C14.8682 6.88542 14.8732 6.85567 14.8775 6.83061C14.8819 6.80514 14.8849 6.78905 14.8869 6.77891C14.8879 6.77412 14.8883 6.77265 14.8881 6.77359C14.8879 6.77423 14.8865 6.78024 14.8836 6.78978C14.881 6.79843 14.875 6.8176 14.8645 6.84239C14.8591 6.85524 14.8513 6.87221 14.8408 6.89173C14.8304 6.91099 14.8154 6.93633 14.7946 6.96445L13.7481 6.19329ZM13.5796 6.71004L13.4978 7.20403L14.7803 7.41647L14.8621 6.92248L13.5796 6.71004ZM13.4993 7.19511L13.4811 7.29613L14.7606 7.52642L14.7787 7.4254L13.4993 7.19511ZM13.4823 7.2899C13.4237 7.59794 13.2613 7.87658 13.0221 8.07934L13.8628 9.07095C14.3288 8.67586 14.6453 8.13289 14.7594 7.53265L13.4823 7.2899ZM13.0221 8.07934C12.783 8.28209 12.4815 8.3967 12.168 8.40405L12.1985 9.70369C12.8093 9.68938 13.3967 9.46605 13.8628 9.07095L13.0221 8.07934ZM12.1833 8.40387H11.9772V9.70387H12.1833V8.40387ZM11.9919 8.40403C11.6663 8.39667 11.354 8.27361 11.1109 8.05689L10.2458 9.02725C10.7195 9.44955 11.3281 9.68936 11.9625 9.7037L11.9919 8.40403ZM11.1109 8.05689C10.8678 7.84017 10.7099 7.54397 10.6653 7.22137L9.37753 7.39914C9.46431 8.02777 9.77212 8.60495 10.2458 9.02725L11.1109 8.05689ZM10.6627 7.20424L10.5809 6.70924L9.2983 6.92126L9.38013 7.41627L10.6627 7.20424ZM10.5806 6.70767C10.5694 6.6408 10.5582 6.57309 10.5476 6.52101C10.5424 6.49507 10.5343 6.45759 10.5225 6.41819C10.5163 6.39716 10.4874 6.29512 10.4124 6.19329L9.3658 6.96445C9.34472 6.93583 9.32953 6.9101 9.31913 6.89072C9.30856 6.87105 9.30081 6.854 9.2954 6.84118C9.28498 6.81646 9.27905 6.7974 9.27654 6.78898C9.27376 6.77963 9.27239 6.77381 9.27229 6.77336C9.27211 6.77259 9.2725 6.77423 9.2735 6.77916C9.27561 6.78958 9.27863 6.80582 9.28306 6.83135C9.28744 6.85653 9.29239 6.88605 9.29857 6.92284L10.5806 6.70767ZM10.4156 6.19769C10.346 6.10151 10.2545 6.02322 10.1488 5.96923L9.55762 7.12704C9.48033 7.08758 9.41349 7.03035 9.36259 6.96005L10.4156 6.19769ZM10.1488 5.96923C10.043 5.91524 9.926 5.88709 9.80726 5.88709V7.18709C9.72047 7.18709 9.63492 7.16651 9.55762 7.12704L10.1488 5.96923ZM9.80726 5.88709C9.68853 5.88709 9.57149 5.91524 9.46575 5.96923L10.0569 7.12704C9.97961 7.16651 9.89406 7.18709 9.80726 7.18709V5.88709ZM9.46575 5.96923C9.36001 6.02322 9.26857 6.10151 9.19894 6.19769L10.2519 6.96005C10.201 7.03035 10.1342 7.08758 10.0569 7.12704L9.46575 5.96923ZM9.20215 6.19329C9.12778 6.29422 9.09889 6.39499 9.09226 6.41715C9.08039 6.45683 9.07223 6.49453 9.06692 6.52076C9.05622 6.57352 9.04499 6.64162 9.03365 6.71012L10.3162 6.92241C10.3223 6.88542 10.3273 6.85567 10.3316 6.83061C10.336 6.80513 10.339 6.78904 10.341 6.77891C10.342 6.77411 10.3424 6.77264 10.3421 6.77358C10.342 6.77422 10.3406 6.78023 10.3377 6.78977C10.3351 6.79842 10.3291 6.8176 10.3186 6.84238C10.3131 6.85523 10.3054 6.8722 10.2949 6.89173C10.2845 6.91099 10.2694 6.93633 10.2487 6.96445L9.20215 6.19329ZM9.03367 6.71004L8.95184 7.20403L10.2344 7.41648L10.3162 6.92249L9.03367 6.71004ZM8.95338 7.19511L8.9352 7.29613L10.2146 7.52642L10.2328 7.4254L8.95338 7.19511ZM8.93635 7.2899C8.8778 7.59794 8.71539 7.87658 8.47622 8.07934L9.31688 9.07095C9.78293 8.67586 10.0994 8.13289 10.2135 7.53265L8.93635 7.2899ZM8.47622 8.07934C8.23706 8.28209 7.93559 8.3967 7.62213 8.40405L7.65256 9.70369C8.26338 9.68938 8.85083 9.46605 9.31688 9.07095L8.47622 8.07934ZM7.63735 8.40387H7.43126V9.70387H7.63735V8.40387ZM7.44648 8.40405C7.13302 8.3967 6.83155 8.28209 6.59238 8.07934L5.75173 9.07095C6.21778 9.46605 6.80523 9.68938 7.41605 9.70369L7.44648 8.40405ZM6.59238 8.07934C6.35321 7.87658 6.19081 7.59794 6.13226 7.2899L4.85512 7.53265C4.96921 8.13289 5.28568 8.67586 5.75173 9.07095L6.59238 8.07934ZM6.13341 7.29612L6.11523 7.1951L4.83579 7.42541L4.85397 7.52642L6.13341 7.29612ZM6.1168 7.20424L6.03498 6.70924L4.75238 6.92126L4.83421 7.41626L6.1168 7.20424ZM6.03472 6.70767C6.02349 6.6408 6.01225 6.57309 6.00169 6.52101C5.99644 6.49507 5.98834 6.45759 5.97662 6.41819C5.97036 6.39715 5.94149 6.29512 5.86646 6.19329L4.81988 6.96445C4.7988 6.93583 4.78361 6.9101 4.77321 6.89072C4.76264 6.87106 4.75489 6.854 4.74949 6.84118C4.73906 6.81647 4.73313 6.7974 4.73062 6.78898C4.72784 6.77964 4.72648 6.77382 4.72637 6.77337C4.72619 6.7726 4.72658 6.77424 4.72758 6.77916C4.72969 6.78958 4.73271 6.80582 4.73715 6.83135C4.74152 6.85653 4.74647 6.88605 4.75265 6.92284L6.03472 6.70767ZM5.86967 6.19769C5.80004 6.10151 5.7086 6.02322 5.60286 5.96923L5.0117 7.12704C4.93441 7.08758 4.86757 7.03035 4.81667 6.96005L5.86967 6.19769ZM5.60286 5.96923C5.49712 5.91524 5.38008 5.88709 5.26134 5.88709V7.18709C5.17455 7.18709 5.08899 7.16651 5.0117 7.12704L5.60286 5.96923ZM5.26134 5.88709C5.1426 5.88709 5.02557 5.91524 4.91983 5.96923L5.51099 7.12704C5.4337 7.16651 5.34814 7.18709 5.26134 7.18709V5.88709ZM4.91983 5.96923C4.81409 6.02322 4.72265 6.10151 4.65302 6.19769L5.70602 6.96005C5.65512 7.03035 5.58828 7.08758 5.51099 7.12704L4.91983 5.96923ZM4.65623 6.19329C4.58186 6.29422 4.55297 6.39499 4.54634 6.41714C4.53447 6.45683 4.52631 6.49453 4.521 6.52075C4.5103 6.57352 4.49907 6.64161 4.48773 6.71012L5.77028 6.92241C5.7764 6.88542 5.78135 6.85567 5.78567 6.83061C5.79007 6.80513 5.79305 6.78905 5.79511 6.77891C5.79608 6.77412 5.79644 6.77264 5.79622 6.77359C5.79607 6.77422 5.79465 6.78023 5.79179 6.78977C5.78921 6.79843 5.78319 6.8176 5.77268 6.84238C5.76723 6.85524 5.75947 6.87221 5.74893 6.89173C5.73854 6.91099 5.72352 6.93633 5.7028 6.96445L4.65623 6.19329ZM4.48772 6.71021C4.39642 7.26229 4.36372 7.43024 4.31004 7.5587L5.50954 8.05989C5.63569 7.758 5.68986 7.40873 5.7703 6.92231L4.48772 6.71021ZM4.30957 7.55983C4.22613 7.7606 4.09611 7.93863 3.93026 8.07922L4.77088 9.07087C5.09406 8.79691 5.34741 8.44999 5.51001 8.05876L4.30957 7.55983ZM3.93026 8.07922C3.76441 8.21981 3.56749 8.31892 3.35577 8.36837L3.65141 9.63431C4.06398 9.53796 4.4477 9.34482 4.77088 9.07087L3.93026 8.07922ZM3.3566 8.36817C3.22096 8.39966 3.04411 8.40387 2.46914 8.40387V9.70387C2.97307 9.70387 3.33364 9.70807 3.65057 9.6345L3.3566 8.36817ZM2.46914 8.40387C2.2558 8.40387 2.12032 8.40367 2.01852 8.39851C1.91774 8.39341 1.89515 8.38485 1.90019 8.3865L1.49652 9.62224C1.65309 9.67338 1.8093 9.68958 1.95274 9.69685C2.09515 9.70406 2.2693 9.70387 2.46914 9.70387V8.40387ZM1.89833 8.38589C1.82987 8.36376 1.76962 8.32164 1.72532 8.26495L0.700974 9.0654C0.905143 9.32667 1.18287 9.52083 1.49838 9.62284L1.89833 8.38589ZM1.72532 8.26495C1.68102 8.20826 1.65471 8.13961 1.64979 8.06783L0.352839 8.15688C0.375552 8.48769 0.496805 8.80412 0.700974 9.0654L1.72532 8.26495ZM1.65001 8.0713C1.65011 8.07273 1.64801 8.0471 1.66679 7.95145C1.68596 7.85383 1.71771 7.72575 1.76828 7.52346L0.507097 7.20817C0.459678 7.39785 0.418193 7.56323 0.391146 7.70098C0.363709 7.84071 0.342417 7.99237 0.35261 8.15341L1.65001 8.0713ZM1.7683 7.5234L2.98357 2.66028L1.72236 2.3451L0.507082 7.20823L1.7683 7.5234Z" fill="white" fill-opacity="0.5"/>
</svg>
