<svg width="11" height="11" viewBox="0 0 11 11" fill="none" xmlns="http://www.w3.org/2000/svg">
<path d="M9.99612 3.63749L6.89939 3.1662L5.51507 0.227347C5.47726 0.146883 5.41506 0.0817459 5.33822 0.0421525C5.14551 -0.0574695 4.91133 0.0255489 4.81498 0.227347L3.43066 3.1662L0.333926 3.63749C0.248549 3.65026 0.17049 3.69241 0.110727 3.75627C0.0384757 3.83403 -0.00133786 3.93865 3.43286e-05 4.04714C0.00140652 4.15563 0.0438522 4.25911 0.118045 4.33484L2.35857 6.62232L1.82924 9.85237C1.81682 9.92751 1.82476 10.0048 1.85216 10.0754C1.87955 10.1461 1.9253 10.2073 1.98422 10.2521C2.04314 10.2969 2.11287 10.3235 2.1855 10.329C2.25814 10.3344 2.33077 10.3184 2.39516 10.2828L5.16502 8.7578L7.93489 10.2828C8.01051 10.3249 8.09832 10.339 8.18248 10.3237C8.3947 10.2853 8.5374 10.0746 8.50081 9.85237L7.97148 6.62232L10.212 4.33484C10.273 4.27226 10.3132 4.19052 10.3254 4.10111C10.3584 3.8776 10.2096 3.67069 9.99612 3.63749Z" fill="#E7A90C"/>
</svg>
